<mxfile host="app.diagrams.net" modified="2022-11-30T08:31:56.428Z" agent="5.0 (Windows NT 10.0; Win64; x64) AppleWebKit/537.36 (KHTML, like Gecko) Chrome/107.0.0.0 Safari/537.36" etag="qa-z5ybdGoyNHsPhqOAp" version="20.5.3" type="github" pages="2">
  <diagram name="General Areas of Work" id="97916047-d0de-89f5-080d-49f4d83e522f">
    <mxGraphModel dx="1422" dy="798" grid="1" gridSize="10" guides="1" tooltips="1" connect="1" arrows="1" fold="1" page="1" pageScale="1.5" pageWidth="1169" pageHeight="827" background="none" math="0" shadow="0">
      <root>
        <mxCell id="0" />
        <mxCell id="1" parent="0" />
        <mxCell id="SmZcs6mr4gcONItWELTx-57" value="" style="edgeStyle=elbowEdgeStyle;elbow=vertical;strokeWidth=4;endArrow=block;endFill=1;fontStyle=1;strokeColor=#23445D;" parent="1" edge="1">
          <mxGeometry x="20" y="-38" width="100" height="100" as="geometry">
            <mxPoint x="770" y="202" as="sourcePoint" />
            <mxPoint x="1228" y="253.5" as="targetPoint" />
          </mxGeometry>
        </mxCell>
        <mxCell id="2" value="QA Area" style="rounded=1;fillColor=#fff2cc;strokeColor=#d6b656;shadow=1;fontStyle=1;fontSize=14;" parent="1" vertex="1">
          <mxGeometry x="670" y="84" width="200" height="60" as="geometry" />
        </mxCell>
        <mxCell id="q7i6bZ7wbP5ZlcHaSlKR-56" value="" style="edgeStyle=orthogonalEdgeStyle;rounded=1;orthogonalLoop=1;jettySize=auto;html=1;strokeWidth=4;" parent="1" source="4" target="8" edge="1">
          <mxGeometry relative="1" as="geometry" />
        </mxCell>
        <mxCell id="4" value="Process" style="rounded=1;fillColor=#D99A5F;strokeColor=none;shadow=1;gradientColor=none;fontStyle=1;fontColor=#FFFFFF;fontSize=14;" parent="1" vertex="1">
          <mxGeometry x="300" y="252" width="200" height="60" as="geometry" />
        </mxCell>
        <mxCell id="q7i6bZ7wbP5ZlcHaSlKR-57" value="" style="edgeStyle=orthogonalEdgeStyle;rounded=1;orthogonalLoop=1;jettySize=auto;html=1;strokeWidth=4;" parent="1" source="5" target="13" edge="1">
          <mxGeometry relative="1" as="geometry" />
        </mxCell>
        <mxCell id="5" value="Infrastructure and Tools" style="rounded=1;fillColor=#D99A5F;strokeColor=none;shadow=1;gradientColor=none;fontStyle=1;fontColor=#FFFFFF;fontSize=14;" parent="1" vertex="1">
          <mxGeometry x="540" y="252" width="200" height="60" as="geometry" />
        </mxCell>
        <mxCell id="q7i6bZ7wbP5ZlcHaSlKR-58" value="" style="edgeStyle=orthogonalEdgeStyle;rounded=1;orthogonalLoop=1;jettySize=auto;html=1;strokeWidth=4;" parent="1" source="6" target="18" edge="1">
          <mxGeometry relative="1" as="geometry" />
        </mxCell>
        <mxCell id="6" value="Project Execution" style="rounded=1;fillColor=#D99A5F;strokeColor=none;shadow=1;gradientColor=none;fontStyle=1;fontColor=#FFFFFF;fontSize=14;" parent="1" vertex="1">
          <mxGeometry x="870" y="252" width="200" height="60" as="geometry" />
        </mxCell>
        <mxCell id="8" value="Naming Convention" style="rounded=1;fillColor=#10739E;strokeColor=none;shadow=1;gradientColor=none;fontStyle=1;fontColor=#FFFFFF;fontSize=14;" parent="1" vertex="1">
          <mxGeometry x="280" y="422" width="200" height="60" as="geometry" />
        </mxCell>
        <mxCell id="9" value="Branching and &#xa;versioning strategy" style="rounded=1;fillColor=#10739E;strokeColor=none;shadow=1;gradientColor=none;fontStyle=1;fontColor=#FFFFFF;fontSize=14;" parent="1" vertex="1">
          <mxGeometry x="280" y="502" width="200" height="60" as="geometry" />
        </mxCell>
        <mxCell id="10" value="CI/CD and&#xa;CT" style="rounded=1;fillColor=#10739E;strokeColor=none;shadow=1;gradientColor=none;fontStyle=1;fontColor=#FFFFFF;fontSize=14;" parent="1" vertex="1">
          <mxGeometry x="280" y="592" width="200" height="60" as="geometry" />
        </mxCell>
        <mxCell id="11" value="Planning and test artifacts" style="rounded=1;fillColor=#10739E;strokeColor=none;shadow=1;gradientColor=none;fontStyle=1;fontColor=#FFFFFF;fontSize=14;" parent="1" vertex="1">
          <mxGeometry x="280" y="682" width="200" height="60" as="geometry" />
        </mxCell>
        <mxCell id="q7i6bZ7wbP5ZlcHaSlKR-61" value="" style="edgeStyle=orthogonalEdgeStyle;rounded=1;orthogonalLoop=1;jettySize=auto;html=1;strokeWidth=4;" parent="1" source="12" target="q7i6bZ7wbP5ZlcHaSlKR-60" edge="1">
          <mxGeometry relative="1" as="geometry" />
        </mxCell>
        <mxCell id="12" value="Project Monitoring &#xa;and KPI" style="rounded=1;fillColor=#10739E;strokeColor=none;shadow=1;gradientColor=none;fontStyle=1;fontColor=#FFFFFF;fontSize=14;" parent="1" vertex="1">
          <mxGeometry x="280" y="772" width="200" height="60" as="geometry" />
        </mxCell>
        <mxCell id="13" value="Observability and&#xa;debugging" style="rounded=1;fillColor=#10739E;strokeColor=none;shadow=1;gradientColor=none;fontStyle=1;fontColor=#FFFFFF;fontSize=14;" parent="1" vertex="1">
          <mxGeometry x="550" y="412" width="200" height="60" as="geometry" />
        </mxCell>
        <mxCell id="14" value="Automation Runners" style="rounded=1;fillColor=#10739E;strokeColor=none;shadow=1;gradientColor=none;fontStyle=1;fontColor=#FFFFFF;fontSize=14;" parent="1" vertex="1">
          <mxGeometry x="550" y="502" width="200" height="60" as="geometry" />
        </mxCell>
        <mxCell id="15" value="TCMS" style="rounded=1;fillColor=#10739E;strokeColor=none;shadow=1;gradientColor=none;fontStyle=1;fontColor=#FFFFFF;fontSize=14;" parent="1" vertex="1">
          <mxGeometry x="550" y="592" width="200" height="60" as="geometry" />
        </mxCell>
        <mxCell id="q7i6bZ7wbP5ZlcHaSlKR-65" value="" style="edgeStyle=orthogonalEdgeStyle;rounded=1;orthogonalLoop=1;jettySize=auto;html=1;strokeWidth=4;" parent="1" source="16" target="q7i6bZ7wbP5ZlcHaSlKR-64" edge="1">
          <mxGeometry relative="1" as="geometry" />
        </mxCell>
        <mxCell id="16" value="Result Reports such&#xa;Splunk and Elastic Stack" style="rounded=1;fillColor=#10739E;strokeColor=none;shadow=1;gradientColor=none;fontStyle=1;fontColor=#FFFFFF;fontSize=14;" parent="1" vertex="1">
          <mxGeometry x="550" y="682" width="200" height="60" as="geometry" />
        </mxCell>
        <mxCell id="18" value="Planning per Feature&#xa;or sprint objective" style="rounded=1;fillColor=#10739E;strokeColor=none;shadow=1;gradientColor=none;fontStyle=1;fontColor=#FFFFFF;fontSize=14;" parent="1" vertex="1">
          <mxGeometry x="840" y="412" width="200" height="60" as="geometry" />
        </mxCell>
        <mxCell id="19" value="Test Design" style="rounded=1;fillColor=#10739E;strokeColor=none;shadow=1;gradientColor=none;fontStyle=1;fontColor=#FFFFFF;fontSize=14;" parent="1" vertex="1">
          <mxGeometry x="840" y="502" width="200" height="60" as="geometry" />
        </mxCell>
        <mxCell id="20" value="Test Automation &#xa;Scripting" style="rounded=1;fillColor=#10739E;strokeColor=none;shadow=1;gradientColor=none;fontStyle=1;fontColor=#FFFFFF;fontSize=14;" parent="1" vertex="1">
          <mxGeometry x="840" y="592" width="200" height="60" as="geometry" />
        </mxCell>
        <mxCell id="21" value="Manual Test Execution" style="rounded=1;fillColor=#10739E;strokeColor=none;shadow=1;gradientColor=none;fontStyle=1;fontColor=#FFFFFF;fontSize=14;" parent="1" vertex="1">
          <mxGeometry x="840" y="682" width="200" height="60" as="geometry" />
        </mxCell>
        <mxCell id="q7i6bZ7wbP5ZlcHaSlKR-69" value="" style="edgeStyle=orthogonalEdgeStyle;rounded=1;orthogonalLoop=1;jettySize=auto;html=1;strokeWidth=4;" parent="1" source="22" target="q7i6bZ7wbP5ZlcHaSlKR-68" edge="1">
          <mxGeometry relative="1" as="geometry" />
        </mxCell>
        <mxCell id="22" value="Test Data Creation" style="rounded=1;fillColor=#10739E;strokeColor=none;shadow=1;gradientColor=none;fontStyle=1;fontColor=#FFFFFF;fontSize=14;" parent="1" vertex="1">
          <mxGeometry x="840" y="772" width="200" height="60" as="geometry" />
        </mxCell>
        <mxCell id="23" value="Architect and Maintenance &#xa;a Framework&#xa;for Web UI" style="rounded=1;fillColor=#10739E;strokeColor=none;shadow=1;gradientColor=none;fontStyle=1;fontColor=#FFFFFF;fontSize=14;" parent="1" vertex="1">
          <mxGeometry x="1150" y="415" width="200" height="60" as="geometry" />
        </mxCell>
        <mxCell id="24" value="Architect and Maintenance&#xa;a Framework&#xa;for Web API" style="rounded=1;fillColor=#10739E;strokeColor=none;shadow=1;gradientColor=none;fontStyle=1;fontColor=#FFFFFF;fontSize=14;" parent="1" vertex="1">
          <mxGeometry x="1150" y="505" width="200" height="60" as="geometry" />
        </mxCell>
        <mxCell id="25" value="Regression Suite creation&#xa;and Maintenance" style="rounded=1;fillColor=#10739E;strokeColor=none;shadow=1;gradientColor=none;fontStyle=1;fontColor=#FFFFFF;fontSize=14;" parent="1" vertex="1">
          <mxGeometry x="1150" y="595" width="200" height="60" as="geometry" />
        </mxCell>
        <mxCell id="26" value="Adding execution Job&#xa;and setting quality gates" style="rounded=1;fillColor=#10739E;strokeColor=none;shadow=1;gradientColor=none;fontStyle=1;fontColor=#FFFFFF;fontSize=14;" parent="1" vertex="1">
          <mxGeometry x="1150" y="685" width="200" height="60" as="geometry" />
        </mxCell>
        <mxCell id="27" value="Incorporate Jobs into&#xa;different QA Pipelines " style="rounded=1;fillColor=#10739E;strokeColor=none;shadow=1;gradientColor=none;fontStyle=1;fontColor=#FFFFFF;fontSize=14;" parent="1" vertex="1">
          <mxGeometry x="1150" y="775" width="200" height="60" as="geometry" />
        </mxCell>
        <mxCell id="29" value="" style="edgeStyle=elbowEdgeStyle;elbow=vertical;strokeWidth=4;endArrow=block;endFill=1;fontStyle=1;strokeColor=#23445D;" parent="1" source="2" edge="1">
          <mxGeometry x="20" y="-38" width="100" height="100" as="geometry">
            <mxPoint x="20" y="62" as="sourcePoint" />
            <mxPoint x="770" y="226.5" as="targetPoint" />
          </mxGeometry>
        </mxCell>
        <mxCell id="30" value="" style="edgeStyle=elbowEdgeStyle;elbow=vertical;strokeWidth=4;endArrow=block;endFill=1;fontStyle=1;strokeColor=#23445D;" parent="1" target="5" edge="1">
          <mxGeometry x="20" y="-38" width="100" height="100" as="geometry">
            <mxPoint x="770" y="202" as="sourcePoint" />
            <mxPoint x="120" y="-38" as="targetPoint" />
          </mxGeometry>
        </mxCell>
        <mxCell id="31" value="" style="edgeStyle=elbowEdgeStyle;elbow=vertical;strokeWidth=4;endArrow=block;endFill=1;fontStyle=1;strokeColor=#23445D;" parent="1" target="4" edge="1">
          <mxGeometry x="20" y="-38" width="100" height="100" as="geometry">
            <mxPoint x="770" y="202" as="sourcePoint" />
            <mxPoint x="120" y="-38" as="targetPoint" />
          </mxGeometry>
        </mxCell>
        <mxCell id="32" value="" style="edgeStyle=elbowEdgeStyle;elbow=vertical;strokeWidth=4;endArrow=block;endFill=1;fontStyle=1;strokeColor=#23445D;" parent="1" target="6" edge="1">
          <mxGeometry x="20" y="-38" width="100" height="100" as="geometry">
            <mxPoint x="770" y="202" as="sourcePoint" />
            <mxPoint x="120" y="-38" as="targetPoint" />
          </mxGeometry>
        </mxCell>
        <mxCell id="38" value="" style="edgeStyle=elbowEdgeStyle;elbow=vertical;strokeWidth=4;endArrow=block;endFill=1;fontStyle=1;strokeColor=#23445D;" parent="1" source="8" target="9" edge="1">
          <mxGeometry x="60" y="-38" width="100" height="100" as="geometry">
            <mxPoint x="60" y="62" as="sourcePoint" />
            <mxPoint x="160" y="-38" as="targetPoint" />
          </mxGeometry>
        </mxCell>
        <mxCell id="39" value="" style="edgeStyle=elbowEdgeStyle;elbow=vertical;strokeWidth=4;endArrow=block;endFill=1;fontStyle=1;strokeColor=#23445D;" parent="1" source="9" target="10" edge="1">
          <mxGeometry x="60" y="-28" width="100" height="100" as="geometry">
            <mxPoint x="60" y="72" as="sourcePoint" />
            <mxPoint x="160" y="-28" as="targetPoint" />
          </mxGeometry>
        </mxCell>
        <mxCell id="40" value="" style="edgeStyle=elbowEdgeStyle;elbow=vertical;strokeWidth=4;endArrow=block;endFill=1;fontStyle=1;strokeColor=#23445D;" parent="1" source="10" target="11" edge="1">
          <mxGeometry x="60" y="-18" width="100" height="100" as="geometry">
            <mxPoint x="60" y="82" as="sourcePoint" />
            <mxPoint x="160" y="-18" as="targetPoint" />
          </mxGeometry>
        </mxCell>
        <mxCell id="41" value="" style="edgeStyle=elbowEdgeStyle;elbow=vertical;strokeWidth=4;endArrow=block;endFill=1;fontStyle=1;strokeColor=#23445D;" parent="1" source="11" target="12" edge="1">
          <mxGeometry x="60" y="-8" width="100" height="100" as="geometry">
            <mxPoint x="60" y="92" as="sourcePoint" />
            <mxPoint x="160" y="-8" as="targetPoint" />
          </mxGeometry>
        </mxCell>
        <mxCell id="42" value="" style="edgeStyle=elbowEdgeStyle;elbow=vertical;strokeWidth=4;endArrow=block;endFill=1;fontStyle=1;strokeColor=#23445D;" parent="1" source="13" target="14" edge="1">
          <mxGeometry x="60" y="-38" width="100" height="100" as="geometry">
            <mxPoint x="60" y="62" as="sourcePoint" />
            <mxPoint x="160" y="-38" as="targetPoint" />
          </mxGeometry>
        </mxCell>
        <mxCell id="43" value="" style="edgeStyle=elbowEdgeStyle;elbow=vertical;strokeWidth=4;endArrow=block;endFill=1;fontStyle=1;strokeColor=#23445D;" parent="1" source="14" target="15" edge="1">
          <mxGeometry x="60" y="-28" width="100" height="100" as="geometry">
            <mxPoint x="60" y="72" as="sourcePoint" />
            <mxPoint x="160" y="-28" as="targetPoint" />
          </mxGeometry>
        </mxCell>
        <mxCell id="44" value="" style="edgeStyle=elbowEdgeStyle;elbow=vertical;strokeWidth=4;endArrow=block;endFill=1;fontStyle=1;strokeColor=#23445D;" parent="1" source="15" target="16" edge="1">
          <mxGeometry x="60" y="-18" width="100" height="100" as="geometry">
            <mxPoint x="60" y="82" as="sourcePoint" />
            <mxPoint x="160" y="-18" as="targetPoint" />
          </mxGeometry>
        </mxCell>
        <mxCell id="46" value="" style="edgeStyle=elbowEdgeStyle;elbow=vertical;strokeWidth=4;endArrow=block;endFill=1;fontStyle=1;strokeColor=#23445D;" parent="1" source="18" target="19" edge="1">
          <mxGeometry x="70" y="-38" width="100" height="100" as="geometry">
            <mxPoint x="70" y="62" as="sourcePoint" />
            <mxPoint x="170" y="-38" as="targetPoint" />
          </mxGeometry>
        </mxCell>
        <mxCell id="47" value="" style="edgeStyle=elbowEdgeStyle;elbow=vertical;strokeWidth=4;endArrow=block;endFill=1;fontStyle=1;strokeColor=#23445D;" parent="1" source="19" target="20" edge="1">
          <mxGeometry x="70" y="-28" width="100" height="100" as="geometry">
            <mxPoint x="70" y="72" as="sourcePoint" />
            <mxPoint x="170" y="-28" as="targetPoint" />
          </mxGeometry>
        </mxCell>
        <mxCell id="48" value="" style="edgeStyle=elbowEdgeStyle;elbow=vertical;strokeWidth=4;endArrow=block;endFill=1;fontStyle=1;strokeColor=#23445D;" parent="1" source="20" target="21" edge="1">
          <mxGeometry x="70" y="-18" width="100" height="100" as="geometry">
            <mxPoint x="70" y="82" as="sourcePoint" />
            <mxPoint x="170" y="-18" as="targetPoint" />
          </mxGeometry>
        </mxCell>
        <mxCell id="49" value="" style="edgeStyle=elbowEdgeStyle;elbow=vertical;strokeWidth=4;endArrow=block;endFill=1;fontStyle=1;strokeColor=#23445D;" parent="1" source="21" target="22" edge="1">
          <mxGeometry x="70" y="-8" width="100" height="100" as="geometry">
            <mxPoint x="70" y="92" as="sourcePoint" />
            <mxPoint x="170" y="-8" as="targetPoint" />
          </mxGeometry>
        </mxCell>
        <mxCell id="50" value="" style="edgeStyle=elbowEdgeStyle;elbow=vertical;strokeWidth=4;endArrow=block;endFill=1;fontStyle=1;strokeColor=#23445D;" parent="1" source="23" target="24" edge="1">
          <mxGeometry x="130" y="-35" width="100" height="100" as="geometry">
            <mxPoint x="130" y="65" as="sourcePoint" />
            <mxPoint x="230" y="-35" as="targetPoint" />
          </mxGeometry>
        </mxCell>
        <mxCell id="51" value="" style="edgeStyle=elbowEdgeStyle;elbow=vertical;strokeWidth=4;endArrow=block;endFill=1;fontStyle=1;strokeColor=#23445D;" parent="1" source="24" target="25" edge="1">
          <mxGeometry x="130" y="-25" width="100" height="100" as="geometry">
            <mxPoint x="130" y="75" as="sourcePoint" />
            <mxPoint x="230" y="-25" as="targetPoint" />
          </mxGeometry>
        </mxCell>
        <mxCell id="52" value="" style="edgeStyle=elbowEdgeStyle;elbow=vertical;strokeWidth=4;endArrow=block;endFill=1;fontStyle=1;strokeColor=#23445D;" parent="1" source="25" target="26" edge="1">
          <mxGeometry x="130" y="-15" width="100" height="100" as="geometry">
            <mxPoint x="130" y="85" as="sourcePoint" />
            <mxPoint x="230" y="-15" as="targetPoint" />
          </mxGeometry>
        </mxCell>
        <mxCell id="53" value="" style="edgeStyle=elbowEdgeStyle;elbow=vertical;strokeWidth=4;endArrow=block;endFill=1;fontStyle=1;strokeColor=#23445D;" parent="1" source="26" target="27" edge="1">
          <mxGeometry x="130" y="-5" width="100" height="100" as="geometry">
            <mxPoint x="130" y="95" as="sourcePoint" />
            <mxPoint x="230" y="-5" as="targetPoint" />
          </mxGeometry>
        </mxCell>
        <mxCell id="q7i6bZ7wbP5ZlcHaSlKR-59" value="" style="edgeStyle=orthogonalEdgeStyle;rounded=1;orthogonalLoop=1;jettySize=auto;html=1;strokeWidth=4;" parent="1" source="SmZcs6mr4gcONItWELTx-56" target="23" edge="1">
          <mxGeometry relative="1" as="geometry" />
        </mxCell>
        <mxCell id="SmZcs6mr4gcONItWELTx-56" value="Automation Framework &#xa;and CT" style="rounded=1;fillColor=#D99A5F;strokeColor=none;shadow=1;gradientColor=none;fontStyle=1;fontColor=#FFFFFF;fontSize=14;" parent="1" vertex="1">
          <mxGeometry x="1128" y="252" width="200" height="60" as="geometry" />
        </mxCell>
        <mxCell id="q7i6bZ7wbP5ZlcHaSlKR-63" value="" style="edgeStyle=orthogonalEdgeStyle;rounded=1;orthogonalLoop=1;jettySize=auto;html=1;strokeWidth=4;" parent="1" source="q7i6bZ7wbP5ZlcHaSlKR-60" target="q7i6bZ7wbP5ZlcHaSlKR-62" edge="1">
          <mxGeometry relative="1" as="geometry" />
        </mxCell>
        <mxCell id="q7i6bZ7wbP5ZlcHaSlKR-60" value="Quality Gates set &#xa;and updates" style="rounded=1;fillColor=#10739E;strokeColor=none;shadow=1;gradientColor=none;fontStyle=1;fontColor=#FFFFFF;fontSize=14;" parent="1" vertex="1">
          <mxGeometry x="280" y="870" width="200" height="60" as="geometry" />
        </mxCell>
        <mxCell id="q7i6bZ7wbP5ZlcHaSlKR-62" value="Trends and adjustments" style="rounded=1;fillColor=#10739E;strokeColor=none;shadow=1;gradientColor=none;fontStyle=1;fontColor=#FFFFFF;fontSize=14;" parent="1" vertex="1">
          <mxGeometry x="280" y="975" width="200" height="60" as="geometry" />
        </mxCell>
        <mxCell id="q7i6bZ7wbP5ZlcHaSlKR-67" value="" style="edgeStyle=orthogonalEdgeStyle;rounded=1;orthogonalLoop=1;jettySize=auto;html=1;strokeWidth=4;" parent="1" source="q7i6bZ7wbP5ZlcHaSlKR-64" target="q7i6bZ7wbP5ZlcHaSlKR-66" edge="1">
          <mxGeometry relative="1" as="geometry" />
        </mxCell>
        <mxCell id="q7i6bZ7wbP5ZlcHaSlKR-64" value="Tools environments such&#xa;Jmeter LGs" style="rounded=1;fillColor=#10739E;strokeColor=none;shadow=1;gradientColor=none;fontStyle=1;fontColor=#FFFFFF;fontSize=14;" parent="1" vertex="1">
          <mxGeometry x="550" y="780" width="200" height="60" as="geometry" />
        </mxCell>
        <mxCell id="q7i6bZ7wbP5ZlcHaSlKR-66" value="Continuous Feedback&#xa;Using ML" style="rounded=1;fillColor=#10739E;strokeColor=none;shadow=1;gradientColor=none;fontStyle=1;fontColor=#FFFFFF;fontSize=14;" parent="1" vertex="1">
          <mxGeometry x="550" y="880" width="200" height="60" as="geometry" />
        </mxCell>
        <mxCell id="q7i6bZ7wbP5ZlcHaSlKR-71" value="" style="edgeStyle=orthogonalEdgeStyle;rounded=1;orthogonalLoop=1;jettySize=auto;html=1;strokeWidth=4;" parent="1" source="q7i6bZ7wbP5ZlcHaSlKR-68" target="q7i6bZ7wbP5ZlcHaSlKR-70" edge="1">
          <mxGeometry relative="1" as="geometry" />
        </mxCell>
        <mxCell id="q7i6bZ7wbP5ZlcHaSlKR-68" value="Test Automation Execution&#xa;and Debugging" style="rounded=1;fillColor=#10739E;strokeColor=none;shadow=1;gradientColor=none;fontStyle=1;fontColor=#FFFFFF;fontSize=14;" parent="1" vertex="1">
          <mxGeometry x="840" y="870" width="200" height="60" as="geometry" />
        </mxCell>
        <mxCell id="q7i6bZ7wbP5ZlcHaSlKR-74" value="" style="edgeStyle=orthogonalEdgeStyle;rounded=1;orthogonalLoop=1;jettySize=auto;html=1;strokeWidth=4;" parent="1" source="q7i6bZ7wbP5ZlcHaSlKR-70" target="q7i6bZ7wbP5ZlcHaSlKR-72" edge="1">
          <mxGeometry relative="1" as="geometry" />
        </mxCell>
        <mxCell id="q7i6bZ7wbP5ZlcHaSlKR-70" value="Per Sprint Reporting" style="rounded=1;fillColor=#10739E;strokeColor=none;shadow=1;gradientColor=none;fontStyle=1;fontColor=#FFFFFF;fontSize=14;" parent="1" vertex="1">
          <mxGeometry x="840" y="970" width="200" height="60" as="geometry" />
        </mxCell>
        <mxCell id="q7i6bZ7wbP5ZlcHaSlKR-75" value="" style="edgeStyle=orthogonalEdgeStyle;rounded=1;orthogonalLoop=1;jettySize=auto;html=1;strokeWidth=4;" parent="1" source="q7i6bZ7wbP5ZlcHaSlKR-72" target="q7i6bZ7wbP5ZlcHaSlKR-73" edge="1">
          <mxGeometry relative="1" as="geometry" />
        </mxCell>
        <mxCell id="q7i6bZ7wbP5ZlcHaSlKR-72" value="Performance Test Scripting" style="rounded=1;fillColor=#10739E;strokeColor=none;shadow=1;gradientColor=none;fontStyle=1;fontColor=#FFFFFF;fontSize=14;" parent="1" vertex="1">
          <mxGeometry x="840" y="1060" width="200" height="60" as="geometry" />
        </mxCell>
        <mxCell id="q7i6bZ7wbP5ZlcHaSlKR-73" value="Performance Test Execution" style="rounded=1;fillColor=#10739E;strokeColor=none;shadow=1;gradientColor=none;fontStyle=1;fontColor=#FFFFFF;fontSize=14;" parent="1" vertex="1">
          <mxGeometry x="840" y="1150" width="200" height="60" as="geometry" />
        </mxCell>
        <mxCell id="2yRKAwIJiEXgY04Iva2J-54" value="Dev/QA Ratio&#xa;7/1- current&#xa;2/1 - healthy&#xa;3/1 - recommended" style="rounded=1;fillColor=#10739E;strokeColor=none;shadow=1;gradientColor=none;fontStyle=1;fontColor=#FFFFFF;fontSize=14;" parent="1" vertex="1">
          <mxGeometry x="1240" y="10" width="210" height="120" as="geometry" />
        </mxCell>
        <mxCell id="2yRKAwIJiEXgY04Iva2J-55" value="" style="rounded=1;whiteSpace=wrap;html=1;fillColor=#10739E;" parent="1" vertex="1">
          <mxGeometry x="30" y="230" width="50" height="20" as="geometry" />
        </mxCell>
        <mxCell id="2yRKAwIJiEXgY04Iva2J-56" value="" style="rounded=1;whiteSpace=wrap;html=1;fillColor=#CCCC00;" parent="1" vertex="1">
          <mxGeometry x="30" y="270" width="50" height="20" as="geometry" />
        </mxCell>
        <mxCell id="2yRKAwIJiEXgY04Iva2J-57" value="" style="rounded=1;whiteSpace=wrap;html=1;fillColor=#009900;" parent="1" vertex="1">
          <mxGeometry x="30" y="321" width="50" height="20" as="geometry" />
        </mxCell>
        <mxCell id="2yRKAwIJiEXgY04Iva2J-58" value="Pending Work" style="text;html=1;align=center;verticalAlign=middle;resizable=0;points=[];autosize=1;strokeColor=none;fillColor=none;" parent="1" vertex="1">
          <mxGeometry x="90" y="225" width="100" height="30" as="geometry" />
        </mxCell>
        <mxCell id="2yRKAwIJiEXgY04Iva2J-59" value="Has to be done sprint 6 but &lt;br&gt;not done yet" style="text;html=1;align=left;verticalAlign=middle;resizable=0;points=[];autosize=1;strokeColor=none;fillColor=none;" parent="1" vertex="1">
          <mxGeometry x="100" y="270" width="170" height="40" as="geometry" />
        </mxCell>
        <mxCell id="2yRKAwIJiEXgY04Iva2J-60" value="Is being done arelady" style="text;html=1;align=center;verticalAlign=middle;resizable=0;points=[];autosize=1;strokeColor=none;fillColor=none;" parent="1" vertex="1">
          <mxGeometry x="90" y="321" width="140" height="30" as="geometry" />
        </mxCell>
        <mxCell id="2yRKAwIJiEXgY04Iva2J-61" value="" style="rounded=1;fillColor=#D99A5F;strokeColor=none;shadow=1;gradientColor=none;fontStyle=1;fontColor=#FFFFFF;fontSize=14;" parent="1" vertex="1">
          <mxGeometry x="29" y="367" width="50" height="20" as="geometry" />
        </mxCell>
        <mxCell id="2yRKAwIJiEXgY04Iva2J-62" value="Sub Area of focus" style="text;html=1;align=center;verticalAlign=middle;resizable=0;points=[];autosize=1;strokeColor=none;fillColor=none;" parent="1" vertex="1">
          <mxGeometry x="90" y="362" width="120" height="30" as="geometry" />
        </mxCell>
      </root>
    </mxGraphModel>
  </diagram>
  <diagram id="_ualpgu-atQ9WvvQ_mHL" name="QE CoE">
    <mxGraphModel dx="1422" dy="798" grid="1" gridSize="10" guides="1" tooltips="1" connect="1" arrows="1" fold="1" page="1" pageScale="1" pageWidth="827" pageHeight="1169" math="0" shadow="0">
      <root>
        <mxCell id="0" />
        <mxCell id="1" parent="0" />
        <mxCell id="OxE-EYruI7zAHqEIbkNq-1" value="" style="shape=image;verticalLabelPosition=bottom;labelBackgroundColor=default;verticalAlign=top;aspect=fixed;imageAspect=0;image=https://images.miraclesoft.com/mss/images/QA-Services/QA_Image3.png;" parent="1" vertex="1">
          <mxGeometry x="45" y="170" width="737.72" height="410" as="geometry" />
        </mxCell>
      </root>
    </mxGraphModel>
  </diagram>
</mxfile>
